<svg xmlns="http://www.w3.org/2000/svg" width="192" height="90" viewBox="0 0 192 90" fill="none">
  <path d="M113.873 44.6819C113.873 54.5527 105.871 62.5546 95.9999 62.5546C86.1291 62.5546 78.1272 54.5527 78.1272 44.6819C78.1272 34.811 86.1291 26.8091 95.9999 26.8091C105.871 26.8091 113.873 34.811 113.873 44.6819Z" fill="white"/>
  <path fill-rule="evenodd" clip-rule="evenodd" d="M96 0C140.28 0 192 44.5217 192 44.5217C192 44.5217 140.28 89.0435 96 89.0435C51.7401 89.0435 0.0474476 44.5626 0 44.5218C0 44.5218 51.7197 0 96 0ZM132.523 44.6819C132.523 64.8527 116.171 81.2045 96 81.2045C75.8291 81.2045 59.4774 64.8527 59.4774 44.6819C59.4774 24.511 75.8291 8.15927 96 8.15927C116.171 8.15927 132.523 24.511 132.523 44.6819Z" fill="white"/>
</svg>