<svg width="1920" height="1036" viewBox="0 0 1920 1036" fill="none" xmlns="http://www.w3.org/2000/svg">
<path d="M1058.91 264.817C1058.91 323.319 1011.49 370.744 952.984 370.744C894.482 370.744 847.057 323.319 847.057 264.817C847.057 206.315 894.482 158.89 952.984 158.89C1011.49 158.89 1058.91 206.315 1058.91 264.817Z" fill="white"/>
<path fill-rule="evenodd" clip-rule="evenodd" d="M952.984 0C1215.42 0 1521.95 263.868 1521.95 263.868C1521.95 263.868 1215.42 527.736 952.984 527.736C690.668 527.736 384.3 264.11 384.019 263.868C384.019 263.868 690.547 0 952.984 0ZM1169.44 264.817C1169.44 384.364 1072.53 481.276 952.984 481.276C833.437 481.276 736.525 384.364 736.525 264.817C736.525 145.27 833.437 48.3577 952.984 48.3577C1072.53 48.3577 1169.44 145.27 1169.44 264.817Z" fill="white"/>
<path d="M110.289 844.546C109.539 836.987 106.322 831.115 100.637 826.93C94.9525 822.745 87.2376 820.652 77.4925 820.652C70.8708 820.652 65.2798 821.589 60.7196 823.463C56.1594 825.274 52.6611 827.804 50.2249 831.053C47.8511 834.301 46.6641 837.987 46.6641 842.11C46.5392 845.546 47.2576 848.544 48.8193 851.105C50.4435 853.667 52.6611 855.884 55.4722 857.758C58.2833 859.57 61.5317 861.163 65.2174 862.537C68.903 863.849 72.8386 864.973 77.024 865.91L94.2653 870.033C102.636 871.907 110.32 874.406 117.316 877.53C124.313 880.653 130.372 884.495 135.495 889.055C140.617 893.615 144.584 898.988 147.395 905.172C150.269 911.356 151.737 918.447 151.799 926.443C151.737 938.187 148.738 948.369 142.804 956.99C136.931 965.548 128.436 972.201 117.316 976.949C106.259 981.634 92.9223 983.976 77.3051 983.976C61.8128 983.976 48.3196 981.603 36.8253 976.855C25.3935 972.107 16.4605 965.08 10.0262 955.772C3.65442 946.401 0.312344 934.813 0 921.008H39.2616C39.6989 927.442 41.5417 932.814 44.7901 937.125C48.1009 941.373 52.505 944.59 58.0022 946.776C63.5619 948.9 69.84 949.962 76.8365 949.962C83.7081 949.962 89.6739 948.963 94.7338 946.964C99.8563 944.965 103.823 942.185 106.634 938.624C109.445 935.063 110.851 930.972 110.851 926.349C110.851 922.039 109.57 918.415 107.009 915.479C104.51 912.543 100.825 910.045 95.952 907.983C91.1419 905.922 85.2386 904.048 78.2421 902.361L57.3463 897.114C41.1669 893.178 28.392 887.025 19.0217 878.654C9.65142 870.283 4.9975 859.008 5.05997 844.827C4.9975 833.208 8.0897 823.057 14.3366 814.374C20.6459 805.691 29.2978 798.913 40.2923 794.04C51.2868 789.168 63.7806 786.731 77.7736 786.731C92.0165 786.731 104.448 789.168 115.067 794.04C125.75 798.913 134.058 805.691 139.992 814.374C145.927 823.057 148.988 833.114 149.175 844.546H110.289Z" fill="white"/>
<path d="M218.258 789.355V981.259H178.34V789.355H218.258Z" fill="white"/>
<path d="M315.826 984.07C301.021 984.07 288.278 981.072 277.595 975.075C266.976 969.015 258.792 960.457 253.045 949.4C247.298 938.28 244.425 925.131 244.425 909.951C244.425 895.146 247.298 882.152 253.045 870.97C258.792 859.788 266.882 851.074 277.314 844.827C287.809 838.58 300.115 835.457 314.233 835.457C323.729 835.457 332.568 836.987 340.751 840.048C348.997 843.047 356.181 847.576 362.303 853.635C368.487 859.695 373.298 867.316 376.733 876.499C380.169 885.619 381.887 896.301 381.887 908.545V919.509H260.354V894.771H344.312C344.312 889.024 343.063 883.933 340.564 879.497C338.065 875.062 334.598 871.595 330.163 869.096C325.79 866.535 320.699 865.254 314.889 865.254C308.83 865.254 303.458 866.66 298.772 869.471C294.15 872.22 290.526 875.937 287.903 880.622C285.279 885.245 283.936 890.398 283.874 896.083V919.602C283.874 926.724 285.185 932.877 287.809 938.062C290.495 943.247 294.275 947.245 299.147 950.056C304.02 952.867 309.798 954.272 316.482 954.272C320.918 954.272 324.978 953.648 328.664 952.398C332.349 951.149 335.504 949.275 338.128 946.776C340.751 944.277 342.75 941.216 344.125 937.593L381.044 940.03C379.17 948.9 375.328 956.646 369.518 963.268C363.771 969.827 356.337 974.95 347.217 978.635C338.159 982.258 327.695 984.07 315.826 984.07Z" fill="white"/>
<path d="M473.529 984.07C458.724 984.07 445.98 981.072 435.298 975.075C424.678 969.015 416.495 960.457 410.748 949.4C405 938.28 402.127 925.131 402.127 909.951C402.127 895.146 405 882.152 410.748 870.97C416.495 859.788 424.584 851.074 435.017 844.827C445.511 838.58 457.818 835.457 471.936 835.457C481.431 835.457 490.27 836.987 498.454 840.048C506.7 843.047 513.883 847.576 520.005 853.635C526.19 859.695 531 867.316 534.436 876.499C537.871 885.619 539.589 896.301 539.589 908.545V919.509H418.056V894.771H502.014C502.014 889.024 500.765 883.933 498.266 879.497C495.768 875.062 492.301 871.595 487.865 869.096C483.492 866.535 478.401 865.254 472.592 865.254C466.532 865.254 461.16 866.66 456.475 869.471C451.852 872.22 448.229 875.937 445.605 880.622C442.981 885.245 441.638 890.398 441.576 896.083V919.602C441.576 926.724 442.888 932.877 445.511 938.062C448.198 943.247 451.977 947.245 456.849 950.056C461.722 952.867 467.5 954.272 474.185 954.272C478.62 954.272 482.68 953.648 486.366 952.398C490.052 951.149 493.206 949.275 495.83 946.776C498.454 944.277 500.453 941.216 501.827 937.593L538.746 940.03C536.872 948.9 533.03 956.646 527.221 963.268C521.473 969.827 514.04 974.95 504.919 978.635C495.861 982.258 485.398 984.07 473.529 984.07Z" fill="white"/>
<path d="M565.639 1035.23V837.331H604.994V861.506H606.774C608.524 857.633 611.054 853.698 614.364 849.7C617.738 845.639 622.111 842.266 627.483 839.58C632.918 836.831 639.664 835.457 647.723 835.457C658.218 835.457 667.9 838.206 676.771 843.703C685.641 849.138 692.732 857.352 698.041 868.347C703.351 879.279 706.006 892.991 706.006 909.482C706.006 925.537 703.414 939.093 698.229 950.149C693.106 961.144 686.11 969.484 677.239 975.168C668.431 980.79 658.561 983.602 647.629 983.602C639.883 983.602 633.292 982.321 627.858 979.76C622.485 977.198 618.081 973.981 614.646 970.108C611.21 966.173 608.586 962.206 606.774 958.208H605.556V1035.23H565.639ZM604.713 909.295C604.713 917.853 605.9 925.318 608.274 931.69C610.648 938.062 614.083 943.028 618.581 946.589C623.079 950.087 628.545 951.836 634.979 951.836C641.476 951.836 646.973 950.056 651.471 946.495C655.969 942.872 659.373 937.874 661.684 931.503C664.058 925.068 665.245 917.666 665.245 909.295C665.245 900.987 664.09 893.678 661.778 887.368C659.467 881.059 656.062 876.124 651.565 872.563C647.067 869.003 641.538 867.222 634.979 867.222C628.482 867.222 622.985 868.94 618.487 872.376C614.052 875.812 610.648 880.684 608.274 886.994C605.9 893.303 604.713 900.737 604.713 909.295Z" fill="white"/>
<path d="M909.717 885.307C909.717 906.234 905.75 924.038 897.816 938.718C889.945 953.398 879.201 964.611 865.582 972.357C852.027 980.041 836.784 983.883 819.855 983.883C802.801 983.883 787.497 980.01 773.941 972.263C760.385 964.517 749.672 953.304 741.801 938.624C733.93 923.944 729.994 906.172 729.994 885.307C729.994 864.38 733.93 846.576 741.801 831.896C749.672 817.216 760.385 806.034 773.941 798.35C787.497 790.604 802.801 786.731 819.855 786.731C836.784 786.731 852.027 790.604 865.582 798.35C879.201 806.034 889.945 817.216 897.816 831.896C905.75 846.576 909.717 864.38 909.717 885.307ZM868.581 885.307C868.581 871.751 866.551 860.319 862.49 851.012C858.492 841.704 852.839 834.645 845.53 829.835C838.221 825.025 829.663 822.62 819.855 822.62C810.048 822.62 801.49 825.025 794.181 829.835C786.872 834.645 781.187 841.704 777.127 851.012C773.129 860.319 771.13 871.751 771.13 885.307C771.13 898.863 773.129 910.294 777.127 919.602C781.187 928.91 786.872 935.969 794.181 940.779C801.49 945.589 810.048 947.994 819.855 947.994C829.663 947.994 838.221 945.589 845.53 940.779C852.839 935.969 858.492 928.91 862.49 919.602C866.551 910.294 868.581 898.863 868.581 885.307Z" fill="white"/>
<path d="M939.772 981.259V789.355H979.689V861.506H980.908C982.657 857.633 985.187 853.698 988.497 849.7C991.871 845.639 996.244 842.266 1001.62 839.58C1007.05 836.831 1013.8 835.457 1021.86 835.457C1032.35 835.457 1042.03 838.206 1050.9 843.703C1059.77 849.138 1066.86 857.352 1072.17 868.347C1077.48 879.279 1080.14 892.991 1080.14 909.482C1080.14 925.537 1077.55 939.093 1072.36 950.149C1067.24 961.144 1060.24 969.484 1051.37 975.168C1042.56 980.79 1032.69 983.602 1021.76 983.602C1014.02 983.602 1007.43 982.321 1001.99 979.76C996.618 977.198 992.214 973.981 988.779 970.108C985.343 966.173 982.719 962.206 980.908 958.208H979.127V981.259H939.772ZM978.846 909.295C978.846 917.853 980.033 925.318 982.407 931.69C984.781 938.062 988.216 943.028 992.714 946.589C997.212 950.087 1002.68 951.836 1009.11 951.836C1015.61 951.836 1021.11 950.056 1025.6 946.495C1030.1 942.872 1033.51 937.874 1035.82 931.503C1038.19 925.068 1039.38 917.666 1039.38 909.295C1039.38 900.987 1038.22 893.678 1035.91 887.368C1033.6 881.059 1030.2 876.124 1025.7 872.563C1021.2 869.003 1015.67 867.222 1009.11 867.222C1002.62 867.222 997.118 868.94 992.62 872.376C988.185 875.812 984.781 880.684 982.407 886.994C980.033 893.303 978.846 900.737 978.846 909.295Z" fill="white"/>
<path d="M1226.53 878.373L1189.98 880.622C1189.36 877.498 1188.01 874.687 1185.95 872.189C1183.89 869.627 1181.17 867.597 1177.8 866.098C1174.49 864.536 1170.52 863.755 1165.9 863.755C1159.72 863.755 1154.5 865.067 1150.25 867.691C1146 870.252 1143.88 873.688 1143.88 877.998C1143.88 881.434 1145.26 884.339 1148 886.712C1150.75 889.086 1155.47 890.992 1162.15 892.428L1188.2 897.676C1202.2 900.549 1212.63 905.172 1219.5 911.544C1226.37 917.916 1229.81 926.286 1229.81 936.656C1229.81 946.089 1227.03 954.366 1221.47 961.488C1215.97 968.609 1208.41 974.169 1198.79 978.167C1189.23 982.102 1178.21 984.07 1165.71 984.07C1146.66 984.07 1131.48 980.103 1120.17 972.17C1108.93 964.174 1102.34 953.304 1100.4 939.561L1139.66 937.5C1140.85 943.309 1143.72 947.744 1148.28 950.805C1152.84 953.804 1158.69 955.303 1165.81 955.303C1172.8 955.303 1178.43 953.96 1182.67 951.274C1186.98 948.525 1189.17 944.996 1189.23 940.685C1189.17 937.062 1187.64 934.095 1184.64 931.784C1181.64 929.41 1177.02 927.598 1170.77 926.349L1145.85 921.383C1131.79 918.572 1121.33 913.699 1114.46 906.765C1107.65 899.831 1104.24 890.992 1104.24 880.247C1104.24 871.002 1106.74 863.037 1111.74 856.353C1116.8 849.669 1123.89 844.515 1133.01 840.892C1142.19 837.268 1152.94 835.457 1165.24 835.457C1183.42 835.457 1197.73 839.299 1208.16 846.982C1218.66 854.666 1224.78 865.13 1226.53 878.373Z" fill="white"/>
<path d="M1320.53 984.07C1305.73 984.07 1292.99 981.072 1282.3 975.075C1271.68 969.015 1263.5 960.457 1257.75 949.4C1252.01 938.28 1249.13 925.131 1249.13 909.951C1249.13 895.146 1252.01 882.152 1257.75 870.97C1263.5 859.788 1271.59 851.074 1282.02 844.827C1292.52 838.58 1304.82 835.457 1318.94 835.457C1328.44 835.457 1337.28 836.987 1345.46 840.048C1353.71 843.047 1360.89 847.576 1367.01 853.635C1373.2 859.695 1378.01 867.316 1381.44 876.499C1384.88 885.619 1386.6 896.301 1386.6 908.545V919.509H1265.06V894.771H1349.02C1349.02 889.024 1347.77 883.933 1345.27 879.497C1342.77 875.062 1339.31 871.595 1334.87 869.096C1330.5 866.535 1325.41 865.254 1319.6 865.254C1313.54 865.254 1308.17 866.66 1303.48 869.471C1298.86 872.22 1295.23 875.937 1292.61 880.622C1289.99 885.245 1288.64 890.398 1288.58 896.083V919.602C1288.58 926.724 1289.89 932.877 1292.52 938.062C1295.2 943.247 1298.98 947.245 1303.86 950.056C1308.73 952.867 1314.51 954.272 1321.19 954.272C1325.63 954.272 1329.69 953.648 1333.37 952.398C1337.06 951.149 1340.21 949.275 1342.84 946.776C1345.46 944.277 1347.46 941.216 1348.83 937.593L1385.75 940.03C1383.88 948.9 1380.04 956.646 1374.23 963.268C1368.48 969.827 1361.05 974.95 1351.93 978.635C1342.87 982.258 1332.4 984.07 1320.53 984.07Z" fill="white"/>
<path d="M1412.64 981.259V837.331H1451.34V862.443H1452.84C1455.47 853.51 1459.87 846.764 1466.06 842.204C1472.24 837.581 1479.36 835.27 1487.42 835.27C1489.42 835.27 1491.57 835.394 1493.89 835.644C1496.2 835.894 1498.23 836.238 1499.98 836.675V872.095C1498.1 871.533 1495.51 871.033 1492.2 870.596C1488.89 870.158 1485.86 869.94 1483.11 869.94C1477.24 869.94 1471.99 871.22 1467.37 873.781C1462.81 876.28 1459.18 879.778 1456.5 884.276C1453.87 888.774 1452.56 893.959 1452.56 899.831V981.259H1412.64Z" fill="white"/>
<path d="M1659.18 837.331L1608.86 981.259H1563.88L1513.56 837.331H1555.73L1585.62 940.311H1587.12L1616.92 837.331H1659.18Z" fill="white"/>
<path d="M1740.56 984.07C1725.75 984.07 1713.01 981.072 1702.33 975.075C1691.71 969.015 1683.52 960.457 1677.78 949.4C1672.03 938.28 1669.16 925.131 1669.16 909.951C1669.16 895.146 1672.03 882.152 1677.78 870.97C1683.52 859.788 1691.61 851.074 1702.05 844.827C1712.54 838.58 1724.85 835.457 1738.97 835.457C1748.46 835.457 1757.3 836.987 1765.48 840.048C1773.73 843.047 1780.91 847.576 1787.04 853.635C1793.22 859.695 1798.03 867.316 1801.47 876.499C1804.9 885.619 1806.62 896.301 1806.62 908.545V919.509H1685.09V894.771H1769.04C1769.04 889.024 1767.8 883.933 1765.3 879.497C1762.8 875.062 1759.33 871.595 1754.9 869.096C1750.52 866.535 1745.43 865.254 1739.62 865.254C1733.56 865.254 1728.19 866.66 1723.5 869.471C1718.88 872.22 1715.26 875.937 1712.64 880.622C1710.01 885.245 1708.67 890.398 1708.61 896.083V919.602C1708.61 926.724 1709.92 932.877 1712.54 938.062C1715.23 943.247 1719.01 947.245 1723.88 950.056C1728.75 952.867 1734.53 954.272 1741.21 954.272C1745.65 954.272 1749.71 953.648 1753.4 952.398C1757.08 951.149 1760.24 949.275 1762.86 946.776C1765.48 944.277 1767.48 941.216 1768.86 937.593L1805.78 940.03C1803.9 948.9 1800.06 956.646 1794.25 963.268C1788.5 969.827 1781.07 974.95 1771.95 978.635C1762.89 982.258 1752.43 984.07 1740.56 984.07Z" fill="white"/>
<path d="M1832.67 981.259V837.331H1871.37V862.443H1872.87C1875.49 853.51 1879.9 846.764 1886.08 842.204C1892.26 837.581 1899.39 835.27 1907.44 835.27C1909.44 835.27 1911.6 835.394 1913.91 835.644C1916.22 835.894 1918.25 836.238 1920 836.675V872.095C1918.13 871.533 1915.53 871.033 1912.22 870.596C1908.91 870.158 1905.88 869.94 1903.13 869.94C1897.26 869.94 1892.01 871.22 1887.39 873.781C1882.83 876.28 1879.21 879.778 1876.52 884.276C1873.9 888.774 1872.59 893.959 1872.59 899.831V981.259H1832.67Z" fill="white"/>
</svg>
